<svg xmlns="http://www.w3.org/2000/svg" fill="none" viewBox="0 0 64 64" aria-hidden="true"><path fill="#E30A17" d="M32 62.72c16.966 0 30.72-13.754 30.72-30.72S48.966 1.28 32 1.28 1.28 15.034 1.28 32 15.034 62.72 32 62.72z"/><path fill="#fff" d="M30.112 19.709c3.632 0 6.896 1.58 9.149 4.09-2.727-4.301-7.527-7.159-12.989-7.159-8.48 0-15.36 6.88-15.36 15.36s6.88 15.36 15.36 15.36c5.466 0 10.262-2.858 12.989-7.158a12.273 12.273 0 01-9.149 4.086c-6.784 0-12.288-5.504-12.288-12.288 0-6.784 5.504-12.291 12.288-12.291zM53.082 27.523c-.1-.131-5.072 1.703-5.226 1.651-.157-.048-3.11-4.454-3.264-4.403-.157.048.051 5.347-.045 5.482-.096.131-5.193 1.577-5.193 1.744 0 .163 5.1 1.603 5.196 1.734.096.131-.105 5.43.052 5.482.156.051 3.104-4.355 3.26-4.407.157-.05 5.133 1.776 5.23 1.642.095-.131-3.188-4.294-3.188-4.46-.003-.164 3.27-4.33 3.178-4.465z"/><path fill="#CCC" d="M32 1.6c16.64 0 30.4 13.76 30.4 30.4S48.64 62.4 32 62.4 1.6 48.64 1.6 32 15.36 1.6 32 1.6zM32 0C14.4 0 0 14.4 0 32s14.4 32 32 32 32-14.4 32-32S49.6 0 32 0z"/></svg>