<svg data-v-423bf9ae="" xmlns="http://www.w3.org/2000/svg" viewBox="0 0 150 90" class="iconLeft"><!----><!----><!----><!----><g data-v-423bf9ae="" id="d65582ab-7b4c-45a6-83ad-4e6534edc8c0" transform="matrix(1.7888377789107095,0,0,1.7888377789107095,-382.77627363645365,-412.1000480510767)" stroke="none" fill="white"><path d="M297.829 255.961a.385.385 0 0 0-.008-.047c-.001-.017-.006-.03-.009-.045l-.017-.045-.021-.045c-.004-.005-.006-.013-.01-.02-.025-.043-2.541-4.245-7.262-9.118-4.261-4.401-11.234-10.252-20.439-13.429A43.113 43.113 0 0 0 256 230.846c-4.557 0-9.08.725-13.441 2.154l-.543.185a.715.715 0 0 0-.061.022c-9.213 3.175-16.193 9.032-20.46 13.435-4.721 4.873-7.235 9.077-7.258 9.118-.004.004-.004.01-.008.014a.36.36 0 0 0-.026.057.151.151 0 0 0-.015.037l-.012.052c-.001.013-.005.027-.005.043-.003.016-.003.031-.003.047 0 .018 0 .031.003.047 0 .016.004.032.005.045l.012.051a.328.328 0 0 0 .015.038.306.306 0 0 0 .026.055l.008.016c.023.042 2.538 4.24 7.258 9.108 4.359 4.496 11.552 10.51 21.065 13.634a43.033 43.033 0 0 0 13.441 2.154c4.56 0 9.082-.725 13.441-2.154.083-.028.167-.059.252-.086l.017-.007c9.379-3.146 16.478-9.089 20.793-13.541 4.721-4.867 7.236-9.067 7.262-9.108.004-.005.006-.013.01-.02l.021-.047.017-.045c.003-.013.008-.029.009-.044.004-.016.006-.032.008-.048.003-.016.003-.031.003-.047s-.002-.034-.005-.05zm-28.467 22.029c-.077.025-.151.053-.228.079a42.114 42.114 0 0 1-13.135 2.104c-4.457 0-8.875-.708-13.134-2.104l-.228-.079c-7.767-4.719-12.401-12.95-12.401-22.029 0-8.94 4.527-17.104 12.114-21.854a42.099 42.099 0 0 1 13.649-2.279c4.453 0 8.871.708 13.135 2.105.173.057.343.117.516.177 7.583 4.748 12.111 12.914 12.111 21.852 0 9.078-4.634 17.31-12.399 22.028z"></path><path d="M269.989 272.461a21.64 21.64 0 0 1-17.654 4.823l-.193-.033a.57.57 0 0 0-.1-.008.475.475 0 0 0-.095-.027l-.192-.038a.49.49 0 1 0-.191.963l.201.039c.035.007.069.008.103.009a.498.498 0 0 0 .1.029l.198.034h.005a22.624 22.624 0 0 0 18.454-5.043.49.49 0 0 0 .057-.69.493.493 0 0 0-.693-.058zM277.633 255.96c0 3.79-.994 7.519-2.875 10.782l-.001.001a4.133 4.133 0 0 1-.099.169.688.688 0 0 0-.042.092.436.436 0 0 0-.058.079l-.104.167a.493.493 0 0 0 .837.515l.106-.177a.452.452 0 0 0 .045-.094.423.423 0 0 0 .061-.083l.104-.179v.001a22.614 22.614 0 0 0 3.005-11.273c0-2.678-.464-5.301-1.378-7.792a.491.491 0 1 0-.922.338 21.544 21.544 0 0 1 1.321 7.454zM245.326 274.783c-5.594-3.179-9.461-8.615-10.61-14.916l-.035-.195a.462.462 0 0 0-.026-.095.565.565 0 0 0-.006-.099l-.03-.193a.49.49 0 1 0-.971.148l.032.204a.485.485 0 0 0 .027.101.467.467 0 0 0 .007.104l.035.198.001.004c1.201 6.588 5.243 12.271 11.089 15.594a.495.495 0 0 0 .671-.185.49.49 0 0 0-.184-.67zM234.089 252.828a.492.492 0 0 0 .564-.406c1.038-6.319 4.811-11.821 10.349-15.097l.17-.099a.472.472 0 0 0 .08-.059.415.415 0 0 0 .089-.039l.172-.096a.49.49 0 1 0-.477-.859l-.178.1a.578.578 0 0 0-.084.06c-.031.012-.063.024-.093.042l-.174.102-.002.001v.001s-.001 0 0 0c-5.789 3.423-9.732 9.175-10.819 15.783a.489.489 0 0 0 .403.566zM251.964 234.703c1.32-.25 2.678-.375 4.035-.375a21.595 21.595 0 0 1 16.583 7.739v.001l.126.15c.021.026.044.05.07.07a.425.425 0 0 0 .053.082l.124.153a.49.49 0 0 0 .769-.608l-.128-.161a.504.504 0 0 0-.073-.073.493.493 0 0 0-.057-.086l-.129-.155-.003-.004a22.577 22.577 0 0 0-17.335-8.091c-1.417 0-2.836.133-4.216.393a.49.49 0 0 0 .181.965z"></path><path d="M248.55 239.795a17.644 17.644 0 0 1 7.448-1.628 17.859 17.859 0 0 1 15.42 8.909l.001.001.095.166c.018.03.035.056.057.081.009.03.021.06.037.088l.093.172a.492.492 0 1 0 .866-.463c-.032-.06-.064-.12-.098-.179a.468.468 0 0 0-.059-.086.502.502 0 0 0-.04-.093 5.14 5.14 0 0 0-.102-.178l-.001-.001c-3.349-5.796-9.582-9.398-16.27-9.398-2.743 0-5.387.578-7.859 1.719a.49.49 0 1 0 .412.89zM241.844 268.298a.622.622 0 0 0 .075.07.603.603 0 0 0 .06.083 6.781 6.781 0 0 0 .137.151 18.819 18.819 0 0 0 17.906 5.701.49.49 0 0 0 .374-.584.49.49 0 0 0-.584-.375 17.834 17.834 0 0 1-16.971-5.404l-.13-.145a.445.445 0 0 0-.072-.065.533.533 0 0 0-.057-.08 18.975 18.975 0 0 1-.126-.146.491.491 0 0 0-.747.636l.135.158zM273.69 254.042c.067.633.103 1.278.103 1.918a17.87 17.87 0 0 1-7.299 14.371l-.001.001-.157.113a.752.752 0 0 0-.073.063.44.44 0 0 0-.084.049l-.161.11a.492.492 0 0 0 .277.897.491.491 0 0 0 .277-.086l.167-.115a.514.514 0 0 0 .078-.068.429.429 0 0 0 .09-.052l.166-.119a18.855 18.855 0 0 0 7.593-17.187.489.489 0 0 0-.541-.435.49.49 0 0 0-.435.54zM242.669 244.172c.043-.048.085-.096.13-.144a.456.456 0 0 0 .057-.078.659.659 0 0 0 .074-.066l.132-.14a.491.491 0 0 0-.714-.676l-.14.151a.542.542 0 0 0-.063.082.449.449 0 0 0-.077.069l-.136.153a18.753 18.753 0 0 0-4.712 12.438c0 2.045.328 4.057.972 5.978a.491.491 0 0 0 .93-.312 17.768 17.768 0 0 1-.92-5.665c0-4.348 1.585-8.535 4.465-11.787v-.003zM250.456 269.679a.49.49 0 0 0 .368-.91 13.757 13.757 0 0 1-8.636-12.81c0-.567.034-1.139.103-1.697v-.001l.025-.186a.627.627 0 0 0 .004-.096.465.465 0 0 0 .022-.091l.03-.186a.492.492 0 0 0-.968-.159c-.012.066-.022.132-.033.199a.496.496 0 0 0-.004.101.41.41 0 0 0-.024.099l-.026.2v.001c-.073.599-.111 1.21-.111 1.817a14.736 14.736 0 0 0 9.25 13.719z"></path><path d="M270.522 258.782a.493.493 0 0 0-.39-.576.493.493 0 0 0-.575.391 13.803 13.803 0 0 1-12.609 11.142h-.001l-.188.012a.475.475 0 0 0-.093.015.445.445 0 0 0-.097-.005l-.187.006a.49.49 0 0 0 .013.982h.013c.068-.001.136-.004.203-.007a.434.434 0 0 0 .1-.016.42.42 0 0 0 .101.006l.201-.012h.001a14.793 14.793 0 0 0 13.508-11.938zM269.344 252.4c.018.06.032.121.048.182a.635.635 0 0 0 .031.09.508.508 0 0 0 .014.094l.043.185a.489.489 0 0 0 .586.371.49.49 0 0 0 .371-.586 6.916 6.916 0 0 0-.045-.196.484.484 0 0 0-.033-.095.394.394 0 0 0-.016-.101l-.049-.195-.001-.001c-1.721-6.463-7.598-10.978-14.295-10.978a14.753 14.753 0 0 0-12.407 6.735.492.492 0 1 0 .823.536 13.775 13.775 0 0 1 11.584-6.29c6.253 0 11.741 4.214 13.346 10.249 0-.002 0-.002 0 0z"></path><path d="M265.925 257.723l-.034.18a.494.494 0 0 0-.009.092.419.419 0 0 0-.027.089c-.013.06-.025.119-.04.178a.49.49 0 1 0 .956.224c.016-.064.03-.131.045-.196a.569.569 0 0 0 .01-.102.468.468 0 0 0 .03-.096l.036-.196v-.001c.112-.635.168-1.285.168-1.934 0-6.098-4.962-11.061-11.061-11.061a11.01 11.01 0 0 0-10.916 9.268.491.491 0 0 0 .968.159 10.037 10.037 0 0 1 9.948-8.445c5.558 0 10.08 4.522 10.08 10.08a10.375 10.375 0 0 1-.154 1.761zM247.291 261.04l-.001-.001c-.03-.052-.061-.104-.09-.157a.476.476 0 0 0-.053-.075.564.564 0 0 0-.035-.085l-.086-.162a.49.49 0 1 0-.872.448l.092.178c.017.03.035.059.057.084a.393.393 0 0 0 .041.092 11.112 11.112 0 0 0 9.655 5.66c2.621 0 5.164-.933 7.159-2.629a.49.49 0 0 0-.635-.748A10.08 10.08 0 0 1 256 266.04a10.126 10.126 0 0 1-8.709-5z"></path><path d="M255.998 248.568h-.056c-4.045.03-7.336 3.347-7.336 7.393a7.412 7.412 0 0 0 3.754 6.438.49.49 0 1 0 .484-.855 6.427 6.427 0 0 1-3.258-5.583c0-3.509 2.855-6.384 6.363-6.412h.049a6.42 6.42 0 0 1 6.412 6.412 6.433 6.433 0 0 1-3.367 5.645c-.025.015-.049.029-.072.048a.62.62 0 0 0-.081.032c-.052.026-.104.053-.157.077a.489.489 0 0 0-.233.653.49.49 0 0 0 .653.234c.062-.029.121-.058.181-.089a.435.435 0 0 0 .084-.055.367.367 0 0 0 .094-.039c.059-.031.117-.063.175-.096l.001-.001a7.421 7.421 0 0 0 3.706-6.41c-.002-4.076-3.319-7.392-7.396-7.392z"></path><path d="M253.406 254.455a2.95 2.95 0 0 1 .086-.141.496.496 0 0 0 .04-.071.46.46 0 0 0 .054-.063c.032-.044.066-.087.101-.128a.49.49 0 1 0-.756-.626 3.17 3.17 0 0 0-.134.172.5.5 0 0 0-.055.095.473.473 0 0 0-.07.083c-.039.061-.078.122-.115.185v.001a3.984 3.984 0 0 0 3.441 5.979 3.984 3.984 0 0 0 3.979-3.979 3.984 3.984 0 0 0-3.979-3.98.492.492 0 0 0 0 .982 3.002 3.002 0 0 1 2.998 2.998 3 3 0 0 1-2.998 2.996 3 3 0 0 1-2.592-4.503z"></path></g><!----></svg>