<svg data-v-423bf9ae="" xmlns="http://www.w3.org/2000/svg" viewBox="0 0 511 90" class="iconLeft"><!----><!----><!----><g data-v-423bf9ae="" id="a2976779-1066-4dcc-badf-10d8e6d4d56d" fill="white" transform="matrix(6.122449456230433,0,0,6.122449456230433,171.44043778864162,3.1836738096877255)"><path d="M-0.29 3.57L-0.29 1.93L5.46 1.93L5.46 3.57L3.55 3.57L3.55 10.34L4.42 10.34L4.42 10.54L3.55 10.54L3.55 11.29L3.04 11.29L3.04 11.55L3.40 11.55L3.40 11.73L1.66 11.73L1.66 11.73Q1.63 11.73 1.63 11.70L1.63 11.70L1.63 3.57L-0.29 3.57ZM3.54 10.34L2.88 10.34L2.88 10.54L3.54 10.54L3.54 10.34ZM5.68 6.80L5.68 2.00L10.47 2.00L10.47 3.60L10.47 3.60Q10.47 3.63 10.44 3.63L10.44 3.63L7.59 3.63L7.59 5.74L10.14 5.74L10.14 5.76L10.14 5.76Q10.14 5.84 10.12 6.79L10.12 6.79L10.12 6.79Q10.10 6.79 10.10 6.80L10.10 6.80L10.21 6.80L10.21 7.29L8.00 7.29L8.00 9.29L7.41 9.29L7.41 9.49L8.00 9.49L8.00 10.10L10.51 10.10L10.51 10.32L10.31 10.32L10.31 11.52L7.31 11.52L7.31 11.73L5.89 11.73L5.89 8.24L5.68 8.24L5.68 7.01L4.12 7.01L4.12 6.80L5.68 6.80ZM6.49 6.80L5.69 6.80L5.69 7.01L6.49 7.01L6.49 6.80ZM11.25 3.59L11.25 1.96L16.39 1.96L16.39 3.19L16.39 3.19Q16.39 3.23 15.61 4.90L15.61 4.90L17.35 4.90L17.35 5.33L15.42 5.33L15.42 5.33Q15.40 5.33 14.90 6.38L14.90 6.38L14.90 6.38Q14.88 6.46 14.39 7.49L14.39 7.49L14.67 7.49L14.67 7.49Q14.14 8.64 14.08 8.72L14.08 8.72L13.23 8.72L13.23 9.10L13.91 9.10L13.45 10.08L15.24 10.08L15.24 10.60L16.86 10.60L16.86 11.70L16.86 11.70Q16.86 11.73 16.82 11.73L16.82 11.73L14.11 11.73L14.11 11.57L11.25 11.57L11.25 10.63L11.66 10.63L11.66 9.58L11.66 9.58Q11.77 9.28 12.65 7.49L12.65 7.49L12.37 7.49L12.37 7.47L14.23 3.59L11.25 3.59ZM15.59 4.90L14.68 4.90L14.68 5.33L15.37 5.33L15.37 5.33Q15.41 5.33 15.59 4.90L15.59 4.90ZM18.18 11.70L18.18 10.19L19.54 10.19L19.54 10.19Q19.56 10.19 19.56 10.21L19.56 10.21L19.56 11.70L19.56 11.70Q19.56 11.73 19.54 11.73L19.54 11.73L18.21 11.73L18.21 11.73Q18.18 11.73 18.18 11.70L18.18 11.70ZM21.32 7.14L20.55 1.95L22.39 1.95L22.94 6.86L23.45 6.86L23.45 6.86Q23.47 6.80 23.91 1.95L23.91 1.95L26.25 1.95L26.25 1.95Q26.70 6.96 26.71 7.05L26.71 7.05L27.49 7.05L27.49 7.05Q28 2.65 28.07 1.95L28.07 1.95L29.91 1.95L29.14 7.14L29.00 7.14L29.00 8.10L27.60 8.10L27.60 8.34L28.71 8.34L28.71 9.80L27.65 9.80L27.65 11.09L27.36 11.09L27.36 11.65L26.17 11.65L26.17 8.48L25.40 8.48L25.40 7.34L25.40 7.34Q25.40 7.20 25.09 4.58L25.09 4.58L25.06 4.58L25.06 4.60L24.81 6.86L24.94 6.86L24.94 10.36L23.80 10.36L23.80 11.73L22.33 11.73L22.33 10.36L21.77 10.36L21.77 7.14L21.32 7.14ZM31.29 7.57L32.98 1.96L34.62 1.96L34.62 1.96Q34.66 2.10 36.22 7.29L36.22 7.29L36.52 7.29L36.52 10.51L35.85 10.51L35.85 10.76L36.52 10.76L36.52 11.45L34.71 11.45L34.71 9.47L32.48 9.47L32.48 10.32L31.58 10.32L31.58 11.73L29.93 11.73L29.93 11.63L30.06 11.63L30.06 10.32L30.73 10.32L30.73 7.57L31.29 7.57ZM33.78 4.71L33.75 4.71L33.75 4.72L33.75 4.72Q33.54 5.89 32.93 8.40L32.93 8.40L34.46 8.40L34.46 7.29L34.33 7.29L34.33 7.29Q33.78 4.92 33.78 4.71L33.78 4.71ZM29.45 7.57L29.45 7.28L30.73 7.28L30.73 7.57L29.45 7.57ZM34.71 11.73L34.71 11.57L36.90 11.57L36.90 11.73L34.71 11.73ZM36.33 3.57L36.33 1.93L42.08 1.93L42.08 3.57L40.17 3.57L40.17 10.34L41.04 10.34L41.04 10.54L40.17 10.54L40.17 11.29L39.66 11.29L39.66 11.55L40.02 11.55L40.02 11.73L38.28 11.73L38.28 11.73Q38.25 11.73 38.25 11.70L38.25 11.70L38.25 3.57L36.33 3.57ZM40.16 10.34L39.50 10.34L39.50 10.54L40.16 10.54L40.16 10.34ZM45.47 1.93L45.47 1.93L45.47 1.93Q47.52 1.93 48.04 3.22L48.04 3.22L48.04 3.22Q48.20 3.53 48.20 3.63L48.20 3.63L47.34 3.63L47.34 3.89L48.27 3.89L48.27 3.88L48.27 3.88Q48.27 3.81 48.20 3.63L48.20 3.63L49.78 3.63L49.78 3.89L48.28 3.89L48.28 3.91L48.28 3.91Q48.40 4.46 48.45 5.09L48.45 5.09L48.45 5.09Q48.45 5.13 46.65 5.22L46.65 5.22L46.65 5.21L46.65 5.21Q46.65 3.58 45.53 3.58L45.53 3.58L45.33 3.58L45.33 3.58Q44.50 3.58 44.31 4.29L44.31 4.29L44.31 4.29Q44.17 4.89 44.17 5.87L44.17 5.87L44.17 7.21L44.15 7.40L43.52 7.40L43.52 7.71L44.15 7.71L44.15 10.08L46.78 10.08L46.78 7.62L48.30 7.62L48.30 10.08L47.46 10.08L47.46 11.60L45.70 11.60L45.70 11.73L44.33 11.73L44.33 11.60L42.94 11.60L42.94 10.84L43.87 10.84L43.87 10.51L42.48 10.51L42.48 9.39L41.89 9.39L41.89 8.00L42.21 8.00L42.21 8.00Q42.18 7.16 42.18 6.66L42.18 6.66L42.18 6.66Q42.18 4.42 42.40 3.84L42.40 3.84L42.40 3.84Q42.61 3.17 43.06 2.69L43.06 2.69L43.06 2.69Q43.87 1.93 45.47 1.93ZM48.97 6.64L48.97 1.96L50.91 1.96L50.91 5.85L52.86 5.85L52.86 1.96L54.50 1.96L54.50 7.51L53.83 7.51L53.83 7.75L54.50 7.75L54.50 11.73L52.89 11.73L52.89 11.73Q52.86 11.73 52.86 11.70L52.86 11.70L52.86 7.48L50.91 7.48L50.91 11.70L50.91 11.70Q50.91 11.73 50.87 11.73L50.87 11.73L49.25 11.73L49.25 6.64L48.97 6.64ZM54.50 7.75L54.50 7.51L55.37 7.51L55.37 7.75L54.50 7.75Z"></path></g><!----><g data-v-423bf9ae="" id="d65582ab-7b4c-45a6-83ad-4e6534edc8c0" transform="matrix(1.7888377789107095,0,0,1.7888377789107095,-382.77627363645365,-412.1000480510767)" stroke="none" fill="white"><path d="M297.829 255.961a.385.385 0 0 0-.008-.047c-.001-.017-.006-.03-.009-.045l-.017-.045-.021-.045c-.004-.005-.006-.013-.01-.02-.025-.043-2.541-4.245-7.262-9.118-4.261-4.401-11.234-10.252-20.439-13.429A43.113 43.113 0 0 0 256 230.846c-4.557 0-9.08.725-13.441 2.154l-.543.185a.715.715 0 0 0-.061.022c-9.213 3.175-16.193 9.032-20.46 13.435-4.721 4.873-7.235 9.077-7.258 9.118-.004.004-.004.01-.008.014a.36.36 0 0 0-.026.057.151.151 0 0 0-.015.037l-.012.052c-.001.013-.005.027-.005.043-.003.016-.003.031-.003.047 0 .018 0 .031.003.047 0 .016.004.032.005.045l.012.051a.328.328 0 0 0 .015.038.306.306 0 0 0 .026.055l.008.016c.023.042 2.538 4.24 7.258 9.108 4.359 4.496 11.552 10.51 21.065 13.634a43.033 43.033 0 0 0 13.441 2.154c4.56 0 9.082-.725 13.441-2.154.083-.028.167-.059.252-.086l.017-.007c9.379-3.146 16.478-9.089 20.793-13.541 4.721-4.867 7.236-9.067 7.262-9.108.004-.005.006-.013.01-.02l.021-.047.017-.045c.003-.013.008-.029.009-.044.004-.016.006-.032.008-.048.003-.016.003-.031.003-.047s-.002-.034-.005-.05zm-28.467 22.029c-.077.025-.151.053-.228.079a42.114 42.114 0 0 1-13.135 2.104c-4.457 0-8.875-.708-13.134-2.104l-.228-.079c-7.767-4.719-12.401-12.95-12.401-22.029 0-8.94 4.527-17.104 12.114-21.854a42.099 42.099 0 0 1 13.649-2.279c4.453 0 8.871.708 13.135 2.105.173.057.343.117.516.177 7.583 4.748 12.111 12.914 12.111 21.852 0 9.078-4.634 17.31-12.399 22.028z"></path><path d="M269.989 272.461a21.64 21.64 0 0 1-17.654 4.823l-.193-.033a.57.57 0 0 0-.1-.008.475.475 0 0 0-.095-.027l-.192-.038a.49.49 0 1 0-.191.963l.201.039c.035.007.069.008.103.009a.498.498 0 0 0 .1.029l.198.034h.005a22.624 22.624 0 0 0 18.454-5.043.49.49 0 0 0 .057-.69.493.493 0 0 0-.693-.058zM277.633 255.96c0 3.79-.994 7.519-2.875 10.782l-.001.001a4.133 4.133 0 0 1-.099.169.688.688 0 0 0-.042.092.436.436 0 0 0-.058.079l-.104.167a.493.493 0 0 0 .837.515l.106-.177a.452.452 0 0 0 .045-.094.423.423 0 0 0 .061-.083l.104-.179v.001a22.614 22.614 0 0 0 3.005-11.273c0-2.678-.464-5.301-1.378-7.792a.491.491 0 1 0-.922.338 21.544 21.544 0 0 1 1.321 7.454zM245.326 274.783c-5.594-3.179-9.461-8.615-10.61-14.916l-.035-.195a.462.462 0 0 0-.026-.095.565.565 0 0 0-.006-.099l-.03-.193a.49.49 0 1 0-.971.148l.032.204a.485.485 0 0 0 .027.101.467.467 0 0 0 .007.104l.035.198.001.004c1.201 6.588 5.243 12.271 11.089 15.594a.495.495 0 0 0 .671-.185.49.49 0 0 0-.184-.67zM234.089 252.828a.492.492 0 0 0 .564-.406c1.038-6.319 4.811-11.821 10.349-15.097l.17-.099a.472.472 0 0 0 .08-.059.415.415 0 0 0 .089-.039l.172-.096a.49.49 0 1 0-.477-.859l-.178.1a.578.578 0 0 0-.084.06c-.031.012-.063.024-.093.042l-.174.102-.002.001v.001s-.001 0 0 0c-5.789 3.423-9.732 9.175-10.819 15.783a.489.489 0 0 0 .403.566zM251.964 234.703c1.32-.25 2.678-.375 4.035-.375a21.595 21.595 0 0 1 16.583 7.739v.001l.126.15c.021.026.044.05.07.07a.425.425 0 0 0 .053.082l.124.153a.49.49 0 0 0 .769-.608l-.128-.161a.504.504 0 0 0-.073-.073.493.493 0 0 0-.057-.086l-.129-.155-.003-.004a22.577 22.577 0 0 0-17.335-8.091c-1.417 0-2.836.133-4.216.393a.49.49 0 0 0 .181.965z"></path><path d="M248.55 239.795a17.644 17.644 0 0 1 7.448-1.628 17.859 17.859 0 0 1 15.42 8.909l.001.001.095.166c.018.03.035.056.057.081.009.03.021.06.037.088l.093.172a.492.492 0 1 0 .866-.463c-.032-.06-.064-.12-.098-.179a.468.468 0 0 0-.059-.086.502.502 0 0 0-.04-.093 5.14 5.14 0 0 0-.102-.178l-.001-.001c-3.349-5.796-9.582-9.398-16.27-9.398-2.743 0-5.387.578-7.859 1.719a.49.49 0 1 0 .412.89zM241.844 268.298a.622.622 0 0 0 .075.07.603.603 0 0 0 .06.083 6.781 6.781 0 0 0 .137.151 18.819 18.819 0 0 0 17.906 5.701.49.49 0 0 0 .374-.584.49.49 0 0 0-.584-.375 17.834 17.834 0 0 1-16.971-5.404l-.13-.145a.445.445 0 0 0-.072-.065.533.533 0 0 0-.057-.08 18.975 18.975 0 0 1-.126-.146.491.491 0 0 0-.747.636l.135.158zM273.69 254.042c.067.633.103 1.278.103 1.918a17.87 17.87 0 0 1-7.299 14.371l-.001.001-.157.113a.752.752 0 0 0-.073.063.44.44 0 0 0-.084.049l-.161.11a.492.492 0 0 0 .277.897.491.491 0 0 0 .277-.086l.167-.115a.514.514 0 0 0 .078-.068.429.429 0 0 0 .09-.052l.166-.119a18.855 18.855 0 0 0 7.593-17.187.489.489 0 0 0-.541-.435.49.49 0 0 0-.435.54zM242.669 244.172c.043-.048.085-.096.13-.144a.456.456 0 0 0 .057-.078.659.659 0 0 0 .074-.066l.132-.14a.491.491 0 0 0-.714-.676l-.14.151a.542.542 0 0 0-.063.082.449.449 0 0 0-.077.069l-.136.153a18.753 18.753 0 0 0-4.712 12.438c0 2.045.328 4.057.972 5.978a.491.491 0 0 0 .93-.312 17.768 17.768 0 0 1-.92-5.665c0-4.348 1.585-8.535 4.465-11.787v-.003zM250.456 269.679a.49.49 0 0 0 .368-.91 13.757 13.757 0 0 1-8.636-12.81c0-.567.034-1.139.103-1.697v-.001l.025-.186a.627.627 0 0 0 .004-.096.465.465 0 0 0 .022-.091l.03-.186a.492.492 0 0 0-.968-.159c-.012.066-.022.132-.033.199a.496.496 0 0 0-.004.101.41.41 0 0 0-.024.099l-.026.2v.001c-.073.599-.111 1.21-.111 1.817a14.736 14.736 0 0 0 9.25 13.719z"></path><path d="M270.522 258.782a.493.493 0 0 0-.39-.576.493.493 0 0 0-.575.391 13.803 13.803 0 0 1-12.609 11.142h-.001l-.188.012a.475.475 0 0 0-.093.015.445.445 0 0 0-.097-.005l-.187.006a.49.49 0 0 0 .013.982h.013c.068-.001.136-.004.203-.007a.434.434 0 0 0 .1-.016.42.42 0 0 0 .101.006l.201-.012h.001a14.793 14.793 0 0 0 13.508-11.938zM269.344 252.4c.018.06.032.121.048.182a.635.635 0 0 0 .031.09.508.508 0 0 0 .014.094l.043.185a.489.489 0 0 0 .586.371.49.49 0 0 0 .371-.586 6.916 6.916 0 0 0-.045-.196.484.484 0 0 0-.033-.095.394.394 0 0 0-.016-.101l-.049-.195-.001-.001c-1.721-6.463-7.598-10.978-14.295-10.978a14.753 14.753 0 0 0-12.407 6.735.492.492 0 1 0 .823.536 13.775 13.775 0 0 1 11.584-6.29c6.253 0 11.741 4.214 13.346 10.249 0-.002 0-.002 0 0z"></path><path d="M265.925 257.723l-.034.18a.494.494 0 0 0-.009.092.419.419 0 0 0-.027.089c-.013.06-.025.119-.04.178a.49.49 0 1 0 .956.224c.016-.064.03-.131.045-.196a.569.569 0 0 0 .01-.102.468.468 0 0 0 .03-.096l.036-.196v-.001c.112-.635.168-1.285.168-1.934 0-6.098-4.962-11.061-11.061-11.061a11.01 11.01 0 0 0-10.916 9.268.491.491 0 0 0 .968.159 10.037 10.037 0 0 1 9.948-8.445c5.558 0 10.08 4.522 10.08 10.08a10.375 10.375 0 0 1-.154 1.761zM247.291 261.04l-.001-.001c-.03-.052-.061-.104-.09-.157a.476.476 0 0 0-.053-.075.564.564 0 0 0-.035-.085l-.086-.162a.49.49 0 1 0-.872.448l.092.178c.017.03.035.059.057.084a.393.393 0 0 0 .041.092 11.112 11.112 0 0 0 9.655 5.66c2.621 0 5.164-.933 7.159-2.629a.49.49 0 0 0-.635-.748A10.08 10.08 0 0 1 256 266.04a10.126 10.126 0 0 1-8.709-5z"></path><path d="M255.998 248.568h-.056c-4.045.03-7.336 3.347-7.336 7.393a7.412 7.412 0 0 0 3.754 6.438.49.49 0 1 0 .484-.855 6.427 6.427 0 0 1-3.258-5.583c0-3.509 2.855-6.384 6.363-6.412h.049a6.42 6.42 0 0 1 6.412 6.412 6.433 6.433 0 0 1-3.367 5.645c-.025.015-.049.029-.072.048a.62.62 0 0 0-.081.032c-.052.026-.104.053-.157.077a.489.489 0 0 0-.233.653.49.49 0 0 0 .653.234c.062-.029.121-.058.181-.089a.435.435 0 0 0 .084-.055.367.367 0 0 0 .094-.039c.059-.031.117-.063.175-.096l.001-.001a7.421 7.421 0 0 0 3.706-6.41c-.002-4.076-3.319-7.392-7.396-7.392z"></path><path d="M253.406 254.455a2.95 2.95 0 0 1 .086-.141.496.496 0 0 0 .04-.071.46.46 0 0 0 .054-.063c.032-.044.066-.087.101-.128a.49.49 0 1 0-.756-.626 3.17 3.17 0 0 0-.134.172.5.5 0 0 0-.055.095.473.473 0 0 0-.07.083c-.039.061-.078.122-.115.185v.001a3.984 3.984 0 0 0 3.441 5.979 3.984 3.984 0 0 0 3.979-3.979 3.984 3.984 0 0 0-3.979-3.98.492.492 0 0 0 0 .982 3.002 3.002 0 0 1 2.998 2.998 3 3 0 0 1-2.998 2.996 3 3 0 0 1-2.592-4.503z"></path></g><!----></svg>